<svg xmlns="http://www.w3.org/2000/svg" viewBox="0 0 128 128" role="img" aria-labelledby="title desc">
  <title id="title">Julia avatar</title>
  <desc id="desc">Rounded avatar illustration used as default Julia editor image.</desc>
  <defs>
    <linearGradient id="bg" x1="0" y1="0" x2="1" y2="1">
      <stop offset="0%" stop-color="#0a1f44"/>
      <stop offset="100%" stop-color="#1976d2"/>
    </linearGradient>
  </defs>
  <circle cx="64" cy="64" r="64" fill="url(#bg)"/>
  <circle cx="64" cy="49" r="22" fill="#f5d7bf"/>
  <path d="M31 100c3-16 17-28 33-28s30 12 33 28" fill="#f5d7bf"/>
  <path d="M42 47c0-15 10-25 22-25 14 0 22 11 22 25-3-5-9-9-22-9s-19 4-22 9z" fill="#14213d"/>
  <circle cx="56" cy="50" r="2.8" fill="#1d3557"/>
  <circle cx="72" cy="50" r="2.8" fill="#1d3557"/>
  <path d="M57 60c2 2 4 3 7 3s5-1 7-3" fill="none" stroke="#b56576" stroke-width="2" stroke-linecap="round"/>
</svg>
